<?xml version="1.0" encoding="utf-8"?>
<!-- Generator: Adobe Illustrator 19.2.1, SVG Export Plug-In . SVG Version: 6.00 Build 0)  -->
<svg version="1.1" id="layer" xmlns="http://www.w3.org/2000/svg" xmlns:xlink="http://www.w3.org/1999/xlink" x="0px" y="0px"
	 viewBox="0 0 652 652" style="enable-background:new 0 0 652 652;" xml:space="preserve">
<style type="text/css">
	.st0{fill:#CF102D;}
</style>
<path class="st0" d="M71,349.3c0,12.3,12.7,12.3,12.7,12.3c12.7,0,12.7-12.3,12.7-12.3v-70.5H81.3v-23h50.9v95.1
	c-0.4,10.7,8.2,10.7,8.2,10.7c9.8,0,14.4-10.7,14.4-10.7c7.4-15.2,6.6-29.5,6.6-29.5c0-24.2-6.6-42.7-6.6-42.7H142v-23h41.8
	c9,22.1,9.8,60.3,9.8,60.3c0.4,50.4-24.2,66.8-24.2,66.8c-11.9,10.7-29.1,9-29.1,9c-18.5,0-28.3-15.6-28.3-15.6
	c-11.5,16-30.8,15.6-30.8,15.6c-45.9,0-45.9-43.5-45.9-43.5v-69.7H20.2v-23H71V349.3L71,349.3z M225.2,266
	c-21.3,0-21.3,16.4-21.3,16.4c0,16.4,21.3,16.4,21.3,16.4c21.3,0,21.3-16.4,21.3-16.4C246.1,266,225.2,266,225.2,266z M297,317.3
	c0,0-1.6,1.2-1.6-2.9v-29.5c0,0,0-7.4,2.5-11.1c0,0,2.5-4.5,6.2-4.5c0,0,2.9,0,4.5,3.7c0,0,1.6,3.7,1.6,7.8c0,0,0,6.2-1.6,10.7
	c0,0-4.5,16-10.3,24.6C298.6,315.6,297.8,316.9,297,317.3L297,317.3z M343.3,348.4c0,0,2.1-4.9,4.5-11.9c0,0,0.8-2.1,1.2-2.1
	c0,0,0.8-0.4,1.2,1.6c0,0,1.6,3.3,3.3,5.7c0,0,2.9,4.9,4.1,7.8c0,0,1.6,3.3,1.6,5.7c0,0,0,3.7-2.5,7c0,0-2.5,3.7-7,3.7
	c0,0-4.1,0-6.2-2.1c0,0-2.5-1.2-3.7-4.1c0,0-0.8-1.2-0.8-2.1c0,0,0-1.2,0.8-2.1C340,355.8,342.1,352.1,343.3,348.4L343.3,348.4z
	 M200.2,317.3c7,0,6.6,4.5,6.6,4.5v48c0,9,7,15.2,7,15.2c6.2,6.2,17.6,6.2,17.6,6.2c13.1,0,20.1-6.6,20.1-6.6
	c7-4.5,12.3-11.1,12.3-11.1c0.4-0.8,1.6-0.8,1.6-0.8c0.8,0,1.2,0.8,1.2,0.8c1.2,5.7,7.4,11.1,7.4,11.1c7,6.6,18.5,6.6,18.5,6.6
	c12.7,0,21.3-6.2,21.3-6.2c6.6-3.7,12.7-10.3,12.7-10.3c0.8-0.8,1.6-0.8,1.6-0.8c1.2,0,1.6,0.8,1.6,0.8c4.5,6.2,15.2,11.9,15.2,11.9
	c8.6,4.9,18,4.9,18,4.9c13.9,0,23-11.9,23-11.9c8.2-8.2,8.6-20.5,8.6-20.5c0-11.9-6.6-21.7-6.6-21.7c-2.5-4.5-11.1-16.8-11.1-16.8
	c-6.2-8.2-7-13.1-7-13.1c-0.8-3.3-1.2-6.2-1.2-6.2h-30.3c-0.4,18.9-7.4,34.4-7.4,34.4c-4.5,12.7-13.1,20.9-13.1,20.9
	c-5.7,6.2-13.1,6.6-13.1,6.6c-8.2,0-7.8-7.8-7.8-7.8c0-4.5,3.3-8.2,3.3-8.2c4.1-5.7,8.6-12.7,8.6-12.7c5.7-9,11.1-18.5,11.1-18.5
	c11.9-20.9,9.8-35.3,9.8-35.3c0-31.2-32-29.9-32-29.9c-32.4,0-33.2,23.8-33.2,23.8v65.6c0,6.6-6.2,14.8-6.2,14.8
	c-4.1,7-11.1,7.8-11.1,7.8c-5.7,0-5.7-6.2-5.7-6.2v-55h-41.4V317.3L200.2,317.3z M442.1,367.3c0,0-5.7,0.4-7.8-4.1
	c0,0-2.5-4.9-2.9-18c0.4-13.1,2.9-18,2.9-18c2.1-4.5,7.8-4.1,7.8-4.1h0.4c0,0,5.7-0.4,7.8,4.1c0,0,2.5,4.5,2.9,18
	c-0.4,13.1-2.9,18-2.9,18C447.9,367.7,442.1,367.3,442.1,367.3z M396.6,345.2c0,22.1,14.8,34,14.8,34c11.5,11.5,31.6,11.5,31.6,11.5
	c20.1,0,32.4-13.1,32.4-13.1c12.7-11.5,12.3-31.2,12.3-31.2c0-4.1-0.8-7.8-0.8-7.8c-0.8-2.5,0.8-4.1,0.8-4.1
	c2.1-2.5,5.7-3.3,5.7-3.3c4.1,0,4.1,4.9,4.1,4.9v53.3H532v-52.1c0-8.2,10.3-8.6,10.3-8.6c9,0,9,7.4,9,7.4v34.4
	C551.2,389,568,389,568,389h27.9v-14.8h-5.3c-5.3-0.4-5.3-6.2-5.3-6.2v-48.4c0-9.4-8.6-16.4-8.6-16.4c-4.9-4.9-15.2-5.3-15.2-5.3
	c-11.5,0-19.7,6.2-19.7,6.2c-4.9,3.7-9.4,8.2-9.4,8.2c-2.1,2.1-3.3,0-3.3,0c-2.5-5.3-7.8-9.8-7.8-9.8c-4.5-4.1-12.3-4.1-12.3-4.1
	c-9.4,0-18,7-18,7c-4.1,2.9-10.7,10.3-10.7,10.3c-1.2,1.2-2.5,0-2.5,0c-1.6-2.5-4.9-5.7-4.9-5.7c-10.7-11.1-30.8-11.5-30.8-11.5
	c-20.1,0-32.4,12.7-32.4,12.7C397.4,323.8,396.6,345.2,396.6,345.2L396.6,345.2z M611.1,381.7c1.2,0,2.5,0,2.5-1.6
	c0-1.2-1.2-1.6-2.5-1.6h-2.1v3.3H611.1z M609.5,387.8h-1.6v-10.7h4.1c2.5,0,3.7,0.8,3.7,2.9c0,2.1-1.2,2.9-2.9,2.9l2.9,4.5H614
	l-2.9-4.5h-1.6V387.8z M611.1,391.5c-4.9,0-9.4-3.7-9.4-9c0-5.3,4.1-9,9.4-9c4.9,0,9,3.7,9,9C620.5,387.8,616,391.5,611.1,391.5z
	 M603.7,382.5c0,4.5,3.3,7.4,7.4,7.4c4.1,0,7.4-3.3,7.4-7.4s-3.3-7.4-7.4-7.4C607,375.1,603.7,378,603.7,382.5z"/>
</svg>
